<?xml version="1.0" encoding="UTF-8"?>
<svg xmlns="http://www.w3.org/2000/svg" xmlns:xlink="http://www.w3.org/1999/xlink" width="751" height="804" viewBox="-21 131 751 804">
  <defs>
    <radialGradient xlink:href="#a" id="f" cx="15.115514" cy="63.965388" r="12.289036" fx="15.115514" fy="63.965388" gradientTransform="scale(1.64399 .60828)" gradientUnits="userSpaceOnUse"/>
    <radialGradient xlink:href="#b" id="h" cx="11.826907" cy="10.476453" r="32.664848" fx="11.826907" fy="10.476453" gradientTransform="scale(1.17954 .8478)" gradientUnits="userSpaceOnUse"/>
    <radialGradient xlink:href="#c" id="s" cx="15.601279" cy="12.142302" r="43.526714" fx="15.601279" fy="12.142302" gradientTransform="matrix(17.88725 0 0 17.88765 -85.112438 82.88338)" gradientUnits="userSpaceOnUse"/>
    <radialGradient xlink:href="#d" id="g" cx="18.247644" cy="15.716079" r="29.993349" fx="18.247644" fy="15.716079" gradientTransform="matrix(17.88725 0 0 17.88765 -85.112438 82.88338)" gradientUnits="userSpaceOnUse"/>
    <radialGradient xlink:href="#e" id="r" cx="18.63378" cy="17.486208" r="40.692665" fx="18.934305" fy="17.810213" gradientTransform="scale(1.03682 .96449)" gradientUnits="userSpaceOnUse"/>
    <radialGradient xlink:href="#e" id="q" cx="18.63378" cy="17.486208" r="40.692665" fx="18.934305" fy="17.810213" gradientTransform="scale(1.03682 .96449)" gradientUnits="userSpaceOnUse"/>
    <radialGradient xlink:href="#e" id="p" cx="18.63378" cy="17.486208" r="40.692665" fx="18.934305" fy="17.810213" gradientTransform="scale(1.03682 .96449)" gradientUnits="userSpaceOnUse"/>
    <radialGradient xlink:href="#e" id="o" cx="18.63378" cy="17.486208" r="40.692665" fx="18.934305" fy="17.810213" gradientTransform="scale(1.03682 .96449)" gradientUnits="userSpaceOnUse"/>
    <radialGradient xlink:href="#e" id="n" cx="18.63378" cy="17.486208" r="40.692665" fx="18.934305" fy="17.810213" gradientTransform="scale(1.03682 .96449)" gradientUnits="userSpaceOnUse"/>
    <radialGradient xlink:href="#e" id="m" cx="18.63378" cy="17.486208" r="40.692665" fx="18.934305" fy="17.810213" gradientTransform="scale(1.03682 .96449)" gradientUnits="userSpaceOnUse"/>
    <radialGradient xlink:href="#e" id="l" cx="18.63378" cy="17.486208" r="40.692665" fx="18.934305" fy="17.810213" gradientTransform="scale(1.03682 .96449)" gradientUnits="userSpaceOnUse"/>
    <radialGradient xlink:href="#e" id="k" cx="18.63378" cy="17.486208" r="40.692665" fx="18.934305" fy="17.810213" gradientTransform="scale(1.03682 .96449)" gradientUnits="userSpaceOnUse"/>
    <radialGradient xlink:href="#e" id="j" cx="18.63378" cy="17.486208" r="40.692665" fx="18.934305" fy="17.810213" gradientTransform="scale(1.03682 .96449)" gradientUnits="userSpaceOnUse"/>
    <radialGradient xlink:href="#e" id="i" cx="18.63378" cy="17.486208" r="40.692665" fx="18.934305" fy="17.810213" gradientTransform="scale(1.03682 .96449)" gradientUnits="userSpaceOnUse"/>
    <linearGradient id="c">
      <stop offset="0" stop-color="#fff"/>
      <stop offset="1" stop-color="#fff" stop-opacity=".16494845"/>
    </linearGradient>
    <linearGradient id="e">
      <stop offset="0" stop-color="#fff"/>
      <stop offset=".37931034" stop-color="#fefefe"/>
      <stop offset="1"/>
    </linearGradient>
    <linearGradient id="b">
      <stop offset="0" stop-color="#fff"/>
      <stop offset="1" stop-color="#fff" stop-opacity="0"/>
    </linearGradient>
    <linearGradient id="d">
      <stop offset="0" stop-color="#d3d7cf"/>
      <stop offset=".15517241" stop-color="#729fcf"/>
      <stop offset=".75" stop-color="#3465a4"/>
      <stop offset="1" stop-color="#204a87"/>
    </linearGradient>
    <linearGradient id="a">
      <stop offset="0"/>
      <stop offset="1" stop-opacity="0"/>
    </linearGradient>
  </defs>
  <path fill="none" d="M-64.879845 115.85568h850v850h-850z"/>
  <path fill="url(#f)" d="M45.052803 38.908627a20.203051 7.4751287 0 1 1-40.4061012 0 20.203051 7.4751287 0 1 1 40.4061012 0z" transform="matrix(17.88745 0 0 22.23847 -85.112438 -100.86366)"/>
  <path fill="url(#g)" stroke="#204a87" stroke-width="17.88744926" d="M701.21647 502.97873c0 191.56958-155.30063 346.86842-346.84392 346.86842-191.56064 0-346.8526813-155.30063-346.8526813-346.86842 0-191.56082 155.2920413-346.84392 346.8526813-346.84392 191.54329 0 346.84392 155.2831 346.84392 346.84392z"/>
  <path fill="url(#h)" d="M30.708637 15.271057a12.929953 9.2934036 0 1 1-25.859905 0 12.929953 9.2934036 0 1 1 25.859905 0z" opacity=".42159382" transform="matrix(14.9528 0 0 17.88745 91.737203 82.88338)"/>
  <path fill-opacity=".71345029" d="M691.47776359 451.04512381c0 4.61619383 0 0 0 0l-9.57504383 10.84550753c-5.86908541-6.91638328-12.45862741-12.73275236-19.15008766-18.80743147l-14.68852842 2.16136977-13.41982194-15.17000429v18.77404446l11.49743289 8.69995265 7.65265477 8.66656564 10.22696919-11.56596412c2.5743144 4.82178754 5.11348459 9.64357507 7.67022688 14.4653626v14.4495477l-11.51500499 13.0068773-21.07247671 14.4653626-15.95899212 15.9256051-10.22696918-11.60110834 5.11348459-13.0068773-10.21115428-11.56596412-17.24527072-36.86101934-14.68852842-16.61091747-3.8447781 4.32449676 5.76540994 20.97055846 10.84550753 12.28642071c6.19416948 17.88138117 12.32156493 34.9720173 20.45569558 52.06441065 12.61326199 0 24.50431018-1.33899494 37.03146882-2.9169706v10.12505094l-15.32463887 37.59026199-14.05417518 15.89046088-11.49743288 24.60798565v40.4633023l3.8447781 15.9256051-6.38394828 7.20808035-14.0717473 8.68238054-14.68852841 12.2864207 12.14935823 13.72909111-16.61091747 14.48293471 3.19109554 9.36945012-24.91725482 28.21202582h-16.59334536l-14.05417518 8.68238054h-8.9582627v-11.56596412l-3.80963388-23.16707246c-4.9430351-14.51807894-10.0899067-28.93248241-15.32463887-43.34688589 0-10.63991381.63435324-21.17615217 1.2704637-31.81430877l6.4015204-14.4495477-8.9582627-17.36651829.65192536-23.85238483-12.14935824-13.7290911 6.07467912-19.87230146-9.884313-11.21452188h-17.26284283l-5.74783784-6.50343865-17.24527071 10.85429358-7.01830154-7.97071-15.97656423 13.73611995c-10.84550752-12.29520677-21.70858716-24.58162748-32.56990959-36.8680482l-12.76789658-30.37339558 11.49743288-17.33137407-6.38394829-7.22389524 14.03660307-33.27455129c11.5325771-14.34587223 23.57825988-28.10835035 35.76276234-41.9217876l21.72440207-5.78298205 24.26532946-2.88358358 16.61091747 4.34206887 23.629219 23.83481272 8.30633735-9.38702223 11.47986077-1.44091318 21.72440207 7.22389524h16.61091747l11.49743288-10.12505094 5.1134846-7.22389524-11.515005-7.22389524-19.16765977-1.44091319c-5.3190783-7.37852982-10.2621134-15.13486006-16.57753046-21.69101505l-6.4015204 2.88358358-2.5567423 18.80743147-11.49743288-13.0068773-2.53917018-14.4829347-12.76789658-10.08990672h-5.1310567l12.78371147 14.4495477-5.11348459 13.0068773-10.21115428 2.88358358 6.38394829-13.0068773-11.515005-5.76540995-10.19358217-11.56596412-19.18523188 4.32449677-2.53917018 5.76540994-11.49743289 7.24146736-6.38394828 15.908033-15.95899212 7.94435183-7.03587365-7.94435184h-7.65265477v-26.03132672l16.61091747-8.68238053h12.76789658l-2.5743144-10.10747883-10.19358218-10.12505093 17.22945582-3.62161228 9.57504382-10.82793542 7.65265478-13.02444941h14.07174729l-3.8447781-10.10747883 8.9582627-5.78298206v11.56596412l19.15008765 4.32449677 19.15008766-15.89046089 1.2862786-7.24146735 16.59334536-11.55717806c-6.00614788.74681476-12.01229577 1.29506465-17.88138117 2.89236963v-13.0226922l6.38394829-14.45833375h-6.3839483l-14.02957421 13.0068773-3.84477811 7.2326813 3.8447781 10.13383699-6.4015204 17.33137406-10.21115428-5.78298206-8.92311847-10.10747882-14.0717473 10.10747882-5.11348458-23.12314218 24.26532946-15.89924693v-8.68238054l15.34045377-10.11626488 24.26532946-5.79176812 16.61091748 5.79176812 30.64752054 5.78298206-7.65265478 8.66656564H540.1238913l16.61091747 17.34894617 12.76789658-14.4495477 3.87816512-6.35759012s48.97523335 43.89513578 76.96409335 91.91093182c27.98885999 48.03161094 41.13279977 104.64368417 41.13279977 116.14111705zM375.16217547 249.35066507l-1.2862786 8.66656563 8.9582627 5.78298206 15.30706677-10.11626488-7.65265478-8.67535169-10.22696918 5.79176812-5.09591248-1.44969924m14.05066075-59.27073378-33.22183495-13.01566336-38.30193252 4.33328282-47.27601013 13.0068773-8.94069058 8.68238054 29.37881405 20.23252976v11.56596412l-11.49743288 11.56596412 15.34045377 30.38218164 10.19358218-5.80055417 12.80128359-20.23252975c19.73348177-6.1010373 37.42684135-13.01566336 56.1833137-21.69101506l15.34045377-39.03117517m34.49229865 121.45316651-5.1134846-13.02444942-8.9582627 2.89939848 2.57431441 15.89046089 11.49743289-5.76540995"/>
  <path fill-opacity=".71345029" d="m428.80456178 308.61437-2.5567423 17.36651829 14.05417518-2.89939848 10.21115428-10.10747883-8.94069058-8.68238054c-3.00307395-7.99706817-6.45247953-15.46170134-10.21115429-23.13192823h-7.65265477v8.66656564l5.09591248 5.78298206v13.0068773M239.7672953 583.32446853l-10.22696918-20.24834466-19.15887372-4.33328282-10.21818312-27.456425-25.542822 2.88358358-21.70858717-15.89046088-23.00365182 20.23252975v3.19109554c-6.95855635-2.0084924-15.51266047-2.28261735-21.70858717-6.09225123l-5.11348459-14.4495477v-15.90803299l-15.32463887 1.44091319c1.27924975-10.12505094 2.54795624-20.23252976 3.83599205-30.35582348h-8.94947664l-8.93190453 11.56596411-8.94947665 4.32449677-12.77668263-7.20808035-1.27924975-15.90803299 2.5567423-17.34894618 19.16765976-14.4495477h15.32463888l2.54795624-8.68238053 19.15887371 4.32449676 14.05417518 17.36651829 2.5567423-28.9324824 24.2723583-20.23252977 8.94069058-21.69101505 17.88138118-7.22389524 10.21818312-14.4495477 22.98607971-4.35788377 11.50621894-17.33137407h-34.49229865l21.71561601-10.12505093h15.31585282l21.72440207-7.24146736 2.5567423-8.64899353-7.6702269-7.24146735-8.94069058-2.89939848 2.5567423-8.66656564-6.3839483-13.0068773-15.33342492 5.76540994 2.5567423-11.55717806-17.88138118-10.12505093-14.04538912 24.56405536 1.2704637 8.68238054-14.04538912 5.80055417-8.94947665 18.78985936-3.82720599-17.34894617-24.2723583-10.12505094-3.83599206-13.0068773 31.93555635-18.80743147 14.05417518-13.0068773 1.27924975-15.89924694-7.66144083-4.34206888-10.21818313-1.44969924-6.38394828 15.908033s-10.68208689 2.09283853-13.428608 2.77112206C104.40228772 277.20949143 33.5304456 346.98307655 17.06537666 478.70538532c.65192535 3.05403306 11.93497847 20.76320753 11.93497847 20.76320753l26.82207176 15.89046088 26.82207175 7.24146736 11.50621894 14.4653626 17.87259512 13.0068773 10.21818312-1.44091319 7.66144084 3.44940559v2.33357647l-10.21115429 27.46521106-7.67022689 11.56596412 2.5567423 5.80055417-6.38394829 21.65587083 22.99486576 41.9393597 22.98607971 20.24834467 10.22696919 14.4495477-1.2862786 30.37339559 7.67022689 17.33137406-7.6702269 33.25697917s-.60096622-.2055937.37780042 3.1225643c.98755269 3.32991523 40.92720605 25.50064894 43.46637624 23.61340411 2.53038413-1.92238905 4.69351111-3.60404017 4.69351111-3.60404017l-2.54795624-7.20808034 10.21115429-10.12505094 3.83599205-10.12505093 16.61091747-5.80055417 12.76789658-31.81430878-3.827206-8.64899353 8.92311848-13.0068773 19.16765977-4.35788377 10.22696918-23.13192824-2.5567423-28.89733818 15.32463888-21.69101506 2.5567423-21.69101505c-20.97055846-10.39917588-41.76891023-21.10762093-62.58307689-31.81430878m-28.10483593-328.19609303 12.76789658 8.6753517h10.22696918v-10.11626489l-12.76789658-5.78298205-10.22696918 7.22389524"/>
  <path fill-opacity=".71345029" d="m178.45468211 243.567683-6.39273434 15.89924694h12.77668263l6.39273435-14.45833375c5.5088571-3.89573723 10.99135605-7.81607542 16.60213141-11.56596412l12.77668264 4.34206888c8.51193105 5.78298206 17.0238621 11.56596412 25.542822 17.34016012l12.78371148-11.55717806-14.06296123-5.78298206-6.39273435-13.01566336-24.26532946-2.89236964-1.27924975-7.2326813-11.49743288 2.89939848-5.10294133 10.1180221-6.39273434-13.01566336-2.54795624 5.78298205 1.27924975 14.45833376-10.21994034 8.68062333m45.97215942-36.15637765 6.39273434-5.774196 12.77668264-2.89236964c8.75091177-4.25596553 17.53696777-7.121977 26.82207175-10.12505094l-5.09591248-8.6753517-16.4914271 2.3687207-7.79147447 7.7651163-12.84521387 1.86264387-11.42011559 5.36300858-5.55103018 2.68501872-3.3896604 4.53887653 16.59334536 2.88358358m21.72440207 137.35944229 7.67022688-11.56596412-11.50621894-8.66656564 3.83599205 20.23252976"/>
  <path fill="url(#i)" d="M44.0713 20.7144c0 .2627 0 0 0 0l-.5449.6172c-.334-.3936-.709-.7246-1.0898-1.0703l-.8359.123-.7637-.8633v1.0684l.6543.4951.4355.4932.582-.6582c.1465.2744.291.5488.4365.8232v.8223l-.6553.7402-1.1992.8232-.9082.9063-.582-.6602.291-.7402-.5811-.6582-.9814-2.0977-.8359-.9453-.2188.2461.3281 1.1934.6172.6992c.3525 1.0176.7012 1.9902 1.1641 2.9629.7178 0 1.3945-.0762 2.1074-.166v.5762l-.8721 2.1392-.7998.9043-.6543 1.4004v2.3027l.2188.9063-.3633.4102-.8008.4941-.8359.6992.6914.7813-.9453.8242.1816.5332-1.418 1.6055h-.9443l-.7998.4941h-.5098v-.6582l-.2168-1.3184c-.2813-.8262-.5742-1.6465-.8721-2.4668 0-.6055.0361-1.2051.0723-1.8105l.3643-.8223-.5098-.9883.0371-1.3574-.6914-.7813.3457-1.1309-.5625-.6382h-.9824l-.3271-.3701-.9814.6177-.3994-.4536-.9092.7817c-.6172-.6997-1.2354-1.3989-1.8535-2.0981l-.7266-1.7285.6543-.9863-.3633-.4111.7988-1.8936c.6563-.8164 1.3418-1.5996 2.0352-2.3857l1.2363-.3291 1.3809-.1641.9453.2471L33.459 19.15l.4727-.5342.6533-.082 1.2363.4111h.9453l.6543-.5762.291-.4111-.6553-.4111-1.0908-.082c-.3027-.4199-.584-.8613-.9434-1.2344l-.3643.1641-.1455 1.0703-.6543-.7402-.1445-.8242-.7266-.5742h-.292l.7275.8223-.291.7402-.5811.1641.3633-.7402-.6553-.3281-.5801-.6582-1.0918.2461-.1445.3281-.6543.4121-.3633.9053-.9082.4521-.4004-.4521h-.4355v-1.4814l.9453-.4941h.7266l-.1465-.5752-.5801-.5762.9805-.2061.5449-.6162.4355-.7412h.8008l-.2188-.5752.5098-.3291v.6582l1.0898.2461 1.0898-.9043.0732-.4121.9443-.6577c-.3418.0425-.6836.0737-1.0176.1646v-.7411l.3633-.8228h-.3633l-.7984.7402-.2188.4116.2188.5767-.3643.9863-.5811-.3291-.5078-.5752-.8008.5752-.291-1.3159 1.3809-.9048v-.4941l.873-.5757 1.3809-.3296.9453.3296 1.7441.3291-.4355.4932h-.9453l.9453.9873.7266-.8223.2207-.3618s2.7871 2.498 4.3799 5.2305c1.5928 2.7334 2.3408 5.9551 2.3408 6.6094z" color="#000" style="marker:none" transform="translate(-86.561321 83.436102) scale(17.57211)"/>
  <path fill="url(#j)" d="m26.0703 9.2363-.0732.4932.5098.3291.8711-.5757-.4355-.4937-.582.3296-.29-.0825" color="#000" style="marker:none" transform="translate(-86.561321 83.436102) scale(17.57211)"/>
  <path fill="url(#k)" d="m26.8701 5.8633-1.8906-.7407-2.1797.2466-2.6904.7402-.5088.4941 1.6719 1.1514v.6582l-.6543.6582.873 1.729.5801-.3301.7285-1.1514c1.123-.3472 2.1299-.7407 3.1973-1.2344l.873-2.2212" color="#000" style="marker:none" transform="translate(-86.561321 83.436102) scale(17.57211)"/>
  <path fill="url(#l)" d="m28.833 12.7749-.291-.7412-.5098.165.1465.9043.6543-.3281" color="#000" style="marker:none" transform="translate(-86.561321 83.436102) scale(17.57211)"/>
  <path fill="url(#m)" d="m29.123 12.6089-.1455.9883.7998-.165.5811-.5752-.5088-.4941c-.1709-.4551-.3672-.8799-.5811-1.3164h-.4355v.4932l.29.3291v.7402" color="#000" style="marker:none" transform="translate(-86.561321 83.436102) scale(17.57211)"/>
  <path fill="url(#n)" d="m18.3652 28.2422-.582-1.1523-1.0903-.2466-.5815-1.5625-1.4536.1641-1.2354-.9043-1.3091 1.1514v.1816c-.396-.1143-.8828-.1299-1.2354-.3467l-.291-.8223v-.9053l-.8721.082c.0728-.5762.145-1.1514.2183-1.7275h-.5093l-.5083.6582-.5093.2461-.7271-.4102-.0728-.9053.1455-.9873 1.0908-.8223h.8721l.145-.4941 1.0903.2461.7998.9883.1455-1.6465 1.3813-1.1514.5088-1.2344 1.0176-.4111.5815-.8223 1.3081-.248.6548-.9863h-1.9629l1.2358-.5762h.8716l1.2363-.4121.1455-.4922-.4365-.4121-.5088-.165.1455-.4932-.3633-.7402-.8726.3281.1455-.6577-1.0176-.5762-.7993 1.3979.0723.4941-.7993.3301-.5093 1.0693-.2178-.9873-1.3813-.5762-.2183-.7402 1.8174-1.0703.7998-.7402.0728-.9048-.436-.2471-.5815-.0825-.3633.9053s-.6079.1191-.7642.1577c-1.9961 1.8394-6.0293 5.8101-6.9663 13.3062.0371.1738.6792 1.1816.6792 1.1816l1.5264.9043 1.5264.4121.6548.8232 1.0171.7402.5815-.082.436.1963v.1328l-.5811 1.563-.4365.6582.1455.3301-.3633 1.2324 1.3086 2.3867 1.3081 1.1523.582.8223-.0732 1.7285.4365.9863-.4365 1.8926s-.0342-.0117.0215.1777c.0562.1895 2.3291 1.4512 2.4736 1.3438.144-.1094.2671-.2051.2671-.2051l-.145-.4102.5811-.5762.2183-.5762.9453-.3301.7266-1.8105-.2178-.4922.5078-.7402 1.0908-.248.582-1.3164-.1455-1.6445.8721-1.2344.1455-1.2344c-1.1934-.5918-2.377-1.2012-3.5615-1.8105" color="#000" style="marker:none" transform="translate(-86.561321 83.436102) scale(17.57211)"/>
  <path fill="url(#o)" d="m16.7656 9.5649.7266.4937h.582v-.5757l-.7266-.3291-.582.4111" color="#000" style="marker:none" transform="translate(-86.561321 83.436102) scale(17.57211)"/>
  <path fill="url(#p)" d="m14.876 8.9072-.3638.9048h.7271l.3638-.8228c.3135-.2217.6255-.4448.9448-.6582l.7271.2471c.4844.3291.9688.6582 1.4536.9868l.7275-.6577-.8003-.3291-.3638-.7407-1.3809-.1646-.0728-.4116-.6543.165-.2904.5758-.3638-.7407-.145.3291.0728.8228-.5816.494" color="#000" style="marker:none" transform="translate(-86.561321 83.436102) scale(17.57211)"/>
  <path fill="url(#q)" d="m17.4922 6.8496.3638-.3286.7271-.1646c.498-.2422.998-.4053 1.5264-.5762l-.29-.4937-.9385.1348-.4434.4419-.731.106-.6499.3052-.3159.1528-.1929.2583.9443.1641" color="#000" style="marker:none" transform="translate(-86.561321 83.436102) scale(17.57211)"/>
  <path fill="url(#r)" d="m18.7285 14.6665.4365-.6582-.6548-.4932.2183 1.1514" color="#000" style="marker:none" transform="translate(-86.561321 83.436102) scale(17.57211)"/>
  <path fill="none" stroke="url(#s)" stroke-width="17.88744926" d="M683.60162 502.97944c0 181.8406-147.41369 329.25251-329.22925 329.25251-181.83219 0-329.237656-147.4137-329.237656-329.25251 0-181.83236 147.405466-329.22925 329.237656-329.22925 181.81556 0 329.22925 147.39689 329.22925 329.22925z"/>
</svg>